<svg width="80" height="81" viewBox="0 0 80 81" fill="none" xmlns="http://www.w3.org/2000/svg">
<path d="M40 0.14624L76.2 21.7462C77.4 22.4796 78.3333 23.4796 79 24.7462C79.6667 26.0129 80 27.3462 80 28.7462V72.1462C80 74.3462 79.2167 76.2296 77.65 77.7962C76.0833 79.3629 74.2 80.1462 72 80.1462H8C5.8 80.1462 3.91667 79.3629 2.35 77.7962C0.783333 76.2296 0 74.3462 0 72.1462V28.7462C0 27.3462 0.333333 26.0129 1 24.7462C1.66667 23.4796 2.6 22.4796 3.8 21.7462L40 0.14624ZM40 46.7462L71.2 28.1462L40 9.54624L8.8 28.1462L40 46.7462ZM40 56.1462L8 36.9462V72.1462H72V36.9462L40 56.1462Z" fill="#0B1829"/>
</svg>
