<svg width="72" height="73" viewBox="0 0 72 73" fill="none" xmlns="http://www.w3.org/2000/svg">
<path d="M8 64.1464H13.7L52.8 25.0464L47.1 19.3464L8 58.4464V64.1464ZM0 72.1464V55.1464L52.8 2.44636C53.6 1.71303 54.4833 1.14636 55.45 0.746362C56.4167 0.346362 57.4333 0.146362 58.5 0.146362C59.5667 0.146362 60.6 0.346362 61.6 0.746362C62.6 1.14636 63.4667 1.74636 64.2 2.54636L69.7 8.14636C70.5 8.8797 71.0833 9.74636 71.45 10.7464C71.8167 11.7464 72 12.7464 72 13.7464C72 14.813 71.8167 15.8297 71.45 16.7964C71.0833 17.763 70.5 18.6464 69.7 19.4464L17 72.1464H0ZM49.9 22.2464L47.1 19.3464L52.8 25.0464L49.9 22.2464Z" fill="#0B1829"/>
</svg>
