<svg width="72" height="73" viewBox="0 0 72 73" fill="none" xmlns="http://www.w3.org/2000/svg">
<path d="M8 72.1464C5.8 72.1464 3.91667 71.363 2.35 69.7964C0.783333 68.2297 0 66.3464 0 64.1464V8.14636C0 5.94636 0.783333 4.06303 2.35 2.49636C3.91667 0.929696 5.8 0.146362 8 0.146362H64C66.2 0.146362 68.0833 0.929696 69.65 2.49636C71.2167 4.06303 72 5.94636 72 8.14636V64.1464C72 66.3464 71.2167 68.2297 69.65 69.7964C68.0833 71.363 66.2 72.1464 64 72.1464H8ZM8 64.1464H64V8.14636H8V64.1464ZM12 56.1464H60L45 36.1464L33 52.1464L24 40.1464L12 56.1464Z" fill="#0B1829"/>
</svg>
