<svg width="72" height="73" viewBox="0 0 72 73" fill="none" xmlns="http://www.w3.org/2000/svg">
<path d="M66.4 72.1464L41.2 46.9464C39.2 48.5464 36.9 49.813 34.3 50.7464C31.7 51.6797 28.9333 52.1464 26 52.1464C18.7333 52.1464 12.5833 49.6297 7.55 44.5964C2.51667 39.563 0 33.413 0 26.1464C0 18.8797 2.51667 12.7297 7.55 7.69636C12.5833 2.66303 18.7333 0.146362 26 0.146362C33.2667 0.146362 39.4167 2.66303 44.45 7.69636C49.4833 12.7297 52 18.8797 52 26.1464C52 29.0797 51.5333 31.8464 50.6 34.4464C49.6667 37.0464 48.4 39.3464 46.8 41.3464L72 66.5464L66.4 72.1464ZM26 44.1464C31 44.1464 35.25 42.3964 38.75 38.8964C42.25 35.3964 44 31.1464 44 26.1464C44 21.1464 42.25 16.8964 38.75 13.3964C35.25 9.89636 31 8.14636 26 8.14636C21 8.14636 16.75 9.89636 13.25 13.3964C9.75 16.8964 8 21.1464 8 26.1464C8 31.1464 9.75 35.3964 13.25 38.8964C16.75 42.3964 21 44.1464 26 44.1464Z" fill="#0B1829"/>
</svg>
