<svg width="88" height="61" viewBox="0 0 88 61" fill="none" xmlns="http://www.w3.org/2000/svg">
<path d="M44 48.1462C49 48.1462 53.25 46.3962 56.75 42.8962C60.25 39.3962 62 35.1462 62 30.1462C62 25.1462 60.25 20.8962 56.75 17.3962C53.25 13.8962 49 12.1462 44 12.1462C39 12.1462 34.75 13.8962 31.25 17.3962C27.75 20.8962 26 25.1462 26 30.1462C26 35.1462 27.75 39.3962 31.25 42.8962C34.75 46.3962 39 48.1462 44 48.1462ZM44 40.9462C41 40.9462 38.45 39.8962 36.35 37.7962C34.25 35.6962 33.2 33.1462 33.2 30.1462C33.2 27.1462 34.25 24.5962 36.35 22.4962C38.45 20.3962 41 19.3462 44 19.3462C47 19.3462 49.55 20.3962 51.65 22.4962C53.75 24.5962 54.8 27.1462 54.8 30.1462C54.8 33.1462 53.75 35.6962 51.65 37.7962C49.55 39.8962 47 40.9462 44 40.9462ZM44 60.1462C34.2667 60.1462 25.4 57.4296 17.4 51.9962C9.4 46.5629 3.6 39.2796 0 30.1462C3.6 21.0129 9.4 13.7296 17.4 8.29624C25.4 2.86291 34.2667 0.14624 44 0.14624C53.7333 0.14624 62.6 2.86291 70.6 8.29624C78.6 13.7296 84.4 21.0129 88 30.1462C84.4 39.2796 78.6 46.5629 70.6 51.9962C62.6 57.4296 53.7333 60.1462 44 60.1462ZM44 52.1462C51.5333 52.1462 58.45 50.1629 64.75 46.1962C71.05 42.2296 75.8667 36.8796 79.2 30.1462C75.8667 23.4129 71.05 18.0629 64.75 14.0962C58.45 10.1296 51.5333 8.14624 44 8.14624C36.4667 8.14624 29.55 10.1296 23.25 14.0962C16.95 18.0629 12.1333 23.4129 8.8 30.1462C12.1333 36.8796 16.95 42.2296 23.25 46.1962C29.55 50.1629 36.4667 52.1462 44 52.1462Z" fill="#0B1829"/>
</svg>
